<svg xmlns="http://www.w3.org/2000/svg" xmlns:xlink="http://www.w3.org/1999/xlink" xmlns:inkscape="http://www.inkscape.org/namespaces/inkscape" version="1.1" width="444.808" height="82.4491" viewBox="0 0 444.808 82.4491">
<defs>
<clipPath id="clip_0">
<path transform="matrix(1,0,0,-1,0,82.4491)" d="M0 82.449H444.808V0H0Z"/>
</clipPath>
</defs>
<g inkscape:groupmode="layer" inkscape:label="Layer 1">
<g clip-path="url(#clip_0)">
<path transform="matrix(1,0,0,-1,20.9828,57.526796)" d="M0 0C3.463 0 6.534 .852 9.226 2.557 11.919 4.268 14.043 6.69 15.605 9.842 17.168 12.987 17.946 16.721 17.946 21.05 17.946 25.278 17.181 28.965 15.646 32.11 14.103 35.269 11.973 37.718 9.26 39.47 6.548 41.221 3.416 42.101-.142 42.101-1.204 42.101-2.198 42.053-3.139 41.952-4.079 41.857-5.242 41.641-6.636 41.309V.643C-5.574 .453-4.701 .311-3.998 .216-3.308 .122-2.645 .054-2.016 .041-1.394 .007-.724 0 0 0M-14.848-2.74V35.763C-14.848 37.921-15.152 39.659-15.747 40.985-16.356 42.304-17.736 42.967-19.901 42.967H-20.983V44.847H-1.657C8.097 44.847 15.402 42.737 20.259 38.529 25.116 34.329 27.544 28.593 27.544 21.341 27.544 16.627 26.509 12.46 24.439 8.827 22.376 5.202 19.312 2.367 15.247 .325 11.188-1.718 6.176-2.74 .216-2.74Z"/>
<path transform="matrix(1,0,0,-1,59.5527,60.265699)" d="M0 0V38.502C0 40.66-.304 42.398-.9 43.724-1.508 45.043-2.882 45.706-5.046 45.706H-6.128V47.587H25.231C26.915 47.587 28.187 47.303 29.053 46.748 29.918 46.2 30.52 45.476 30.852 44.59 31.19 43.697 31.359 42.777 31.359 41.81V35.972H29.485C29.485 38.955 28.708 41.12 27.145 42.466 25.582 43.812 23.357 44.482 20.469 44.482H8.144V26.171H27.179V23.066H8.144V3.098H20.617C23.506 3.098 25.88 3.687 27.761 4.863 29.627 6.04 31.163 8.144 32.367 11.175L34.099 10.6 31.792 4.464C31.359 3.071 30.71 1.982 29.844 1.184 28.985 .399 27.659 0 25.88 0Z"/>
<path transform="matrix(1,0,0,-1,112.1796,35.682897)" d="M0 0H4.688C5.79 0 6.94 .183 8.144 .541 9.348 .9 10.478 1.468 11.54 2.239 12.588 3.003 13.447 4.038 14.097 5.337 14.746 6.636 15.064 8.219 15.064 10.099 15.064 11.966 14.746 13.556 14.097 14.848 13.447 16.146 12.602 17.188 11.567 17.986 10.532 18.784 9.423 19.359 8.219 19.718 7.014 20.076 5.858 20.259 4.762 20.259 4.228 20.259 3.538 20.212 2.665 20.11 1.799 20.016 .913 19.873 0 19.684ZM24.439-25.305C22.802-25.305 21.253-24.974 19.785-24.291 18.324-23.628 16.884-22.525 15.463-21.017 14.043-19.501 12.541-17.445 10.958-14.848L3.747-2.74H0V-24.581H-8.219V13.907C-8.219 16.079-8.523 17.817-9.118 19.143-9.72 20.462-11.1 21.125-13.265 21.125H-14.347V22.999H5.12C6.372 22.999 7.819 22.917 9.483 22.748 11.141 22.572 12.805 22.241 14.489 21.74 16.173 21.226 17.736 20.496 19.177 19.542 20.617 18.575 21.788 17.323 22.667 15.788 23.56 14.252 24.006 12.325 24.006 10.018 24.006 7.373 23.431 5.242 22.281 3.605 21.125 1.968 19.657 .71 17.878-.183 16.099-1.069 14.252-1.752 12.324-2.239L19.9-14.848C21.72-17.925 23.391-19.995 24.906-21.05 26.421-22.112 27.855-22.735 29.201-22.924V-24.581C28.809-24.771 28.166-24.947 27.247-25.089 26.34-25.231 25.4-25.305 24.439-25.305"/>
<path transform="matrix(1,0,0,-1,202.8709,63.509798)" d="M0 0C-3.463 0-6.237 .541-8.327 1.623-10.417 2.706-11.905 4.39-12.798 6.663-13.691 8.949-14.131 11.898-14.131 15.504V41.952L-30.852 3.24H-32.8L-51.909 43.109V3.24H-55.224V50.827H-47.221L-29.844 14.563-14.205 50.827H-5.905V15.504C-5.905 11.12-5.472 7.786-4.579 5.479-3.687 3.166-2.165 1.901 0 1.657Z"/>
<path transform="matrix(1,0,0,-1,231.0591,58.607698)" d="M0 0C3.071 0 5.668 .873 7.786 2.624 9.896 4.39 11.519 6.92 12.649 10.241 13.786 13.549 14.347 17.519 14.347 22.133 14.347 26.793 13.786 30.771 12.649 34.065 11.519 37.352 9.896 39.875 7.786 41.634 5.668 43.386 3.071 44.265 0 44.265-2.976 44.265-5.54 43.386-7.678 41.634-9.815 39.875-11.452 37.352-12.582 34.065-13.711 30.771-14.279 26.793-14.279 22.133-14.279 17.519-13.711 13.549-12.582 10.241-11.452 6.92-9.815 4.39-7.678 2.624-5.54 .873-2.976 0 0 0M0-3.098C-4.667-3.098-8.733-1.982-12.223 .257-15.7 2.482-18.392 5.499-20.3 9.301-22.194 13.096-23.141 17.377-23.141 22.133-23.141 26.888-22.194 31.163-20.3 34.965-18.392 38.759-15.7 41.776-12.223 44.008-8.733 46.247-4.667 47.363 0 47.363 4.708 47.363 8.8 46.247 12.257 44.008 15.72 41.776 18.412 38.759 20.327 34.965 22.254 31.163 23.208 26.888 23.208 22.133 23.208 17.377 22.254 13.096 20.327 9.301 18.412 5.499 15.72 2.482 12.257 .257 8.8-1.982 4.708-3.098 0-3.098"/>
<path transform="matrix(1,0,0,-1,284.6957,61.707796)" d="M0 0C-4.857 0-9.024 1.082-12.507 3.24-15.998 5.405-18.649 8.354-20.469 12.081-22.302 15.795-23.208 19.948-23.208 24.507-23.208 28.166-22.64 31.562-21.483 34.708-20.327 37.86-18.683 40.606-16.546 42.967-14.401 45.321-11.925 47.161-9.118 48.486-6.304 49.805-3.274 50.468 0 50.468 4.275 50.468 7.819 49.887 10.627 48.73 13.447 47.587 15.524 46.207 16.87 44.624 17.783 43.467 18.311 41.905 18.46 39.943 18.602 37.968 18.669 35.905 18.669 33.74H16.802C15.882 38.252 14.212 41.661 11.783 43.941 9.355 46.22 6.155 47.363 2.164 47.363-.866 47.363-3.632 46.667-6.128 45.273-8.625 43.88-10.62 41.526-12.108 38.211-13.603 34.89-14.347 30.331-14.347 24.507-14.347 21.767-14.036 19.129-13.407 16.579-12.791 14.029-11.81 11.736-10.485 9.7-9.166 7.65-7.475 6.04-5.405 4.863-3.342 3.687-.819 3.098 2.164 3.098 5.574 3.098 8.645 3.971 11.384 5.736 14.13 7.488 16.41 10.018 18.243 13.339L20.327 11.75C18.067 7.522 15.294 4.505 12 2.706 8.712 .9 4.708 0 0 0"/>
<path transform="matrix(1,0,0,-1,328.6,9.801399)" d="M0 0 2.956 9.801H10.816L3.538 0ZM-12.839-50.468V-11.966C-12.839-9.801-13.13-8.063-13.738-6.744-14.334-5.425-15.72-4.762-17.878-4.762H-18.96V-2.882H12.399C14.076-2.882 15.355-3.159 16.221-3.714 17.086-4.268 17.682-4.985 18.02-5.878 18.365-6.771 18.527-7.691 18.527-8.645V-14.489H16.647C16.647-11.513 15.869-9.348 14.306-8.002 12.751-6.656 10.525-5.98 7.644-5.98H-4.688V-24.291H14.347V-27.389H-4.688V-47.364H7.786C10.667-47.364 13.048-46.782 14.922-45.605 16.802-44.421 18.338-42.324 19.542-39.287L21.267-39.869 18.96-45.99C18.527-47.384 17.878-48.486 17.019-49.271 16.146-50.069 14.827-50.468 13.048-50.468Z"/>
<path transform="matrix(1,0,0,-1,364.7178,43.828496)" d="M0 0H16.802L8.577 19.684ZM33.382-16.721C31.988-16.721 30.459-16.525 28.802-16.119 27.145-15.7 25.528-14.841 23.966-13.522 22.41-12.196 21.077-10.146 19.968-7.353L18.243-3.098H-1.366L-7.204-16.437H-10.742L10.099 31.143H12.839L28.91-7.353C29.864-9.707 30.933-11.472 32.11-12.649 33.294-13.833 34.775-14.516 36.547-14.706V-16.363C36.169-16.458 35.675-16.545 35.073-16.62 34.471-16.687 33.903-16.721 33.382-16.721"/>
<path transform="matrix(1,0,0,-1,442.1445,60.6979)" d="M0 0-30.71 36.987V.433H-34.024V39.361C-34.024 41.337-34.471 42.96-35.364 44.232-36.257 45.497-37.968 46.132-40.511 46.132H-41.025V48.013H-36.121C-33.524 48.013-31.42 47.641-29.81 46.897-28.2 46.153-26.841 45.084-25.738 43.69L-.724 13.84V48.013H2.597V0Z"/>
<path transform="matrix(1,0,0,-1,0,82.4491)" d="M298.585 0H152.36199V3.017H298.585Z" fill="#ffffff"/>
<path transform="matrix(1,0,0,-1,0,82.4491)" d="M444.808 0H298.58503V3.017H444.808Z" fill="#ea2435"/>
<path transform="matrix(1,0,0,-1,0,82.4491)" d="M152.361 0H6.137985V3.017H152.361Z" fill="#293a8c"/>
</g>
</g>
</svg>
